<svg xmlns="http://www.w3.org/2000/svg" viewBox="0 0 282 141.89"><defs><style>.cls-1,.cls-2{fill:#1b2e38;}.cls-2{fill-rule:evenodd;}</style></defs><title>Asset 4</title><g id="Layer_2" data-name="Layer 2"><g id="Layer_1-2" data-name="Layer 1"><path class="cls-1" d="M113.75,54.77h-5.07l-3.61-8.9h-4.43v8.9h-4.7V31h10.39a7.42,7.42,0,0,1,6.34,11.27,7.33,7.33,0,0,1-2.88,2.7Zm-4.7-16.32a2.6,2.6,0,0,0-.79-1.92,2.63,2.63,0,0,0-1.93-.8h-5.69v5.44h5.69a2.7,2.7,0,0,0,2.72-2.72"/><polygon class="cls-1" points="135.32 31.04 124.56 55.52 113.81 31.04 118.94 31.04 124.55 43.81 130.19 31.04 135.32 31.04"/><path class="cls-1" d="M116.47,74.65a10.39,10.39,0,0,1-20.77,0V60.92h4.69V74.65a5.69,5.69,0,0,0,11.38,0V60.92h4.7Z"/><polygon class="cls-1" points="141.01 85.41 123.7 70.44 123.7 84.66 119 84.66 119 60.17 136.31 75.14 136.31 60.92 141.01 60.92 141.01 85.41"/><rect class="cls-1" x="144.04" y="60.92" width="4.95" height="23.74"/><polygon class="cls-1" points="171.3 60.92 160.55 85.41 149.79 60.92 154.92 60.92 160.53 73.7 166.17 60.92 171.3 60.92"/><polygon class="cls-1" points="187.44 84.66 171.86 84.66 171.86 60.92 186.7 60.92 186.7 65.62 176.56 65.62 176.56 70.32 185.96 70.32 185.96 75.02 176.56 75.02 176.56 79.97 187.44 79.97 187.44 84.66"/><path class="cls-1" d="M208,84.66H203l-3.6-8.9h-4.43v8.9h-4.7V60.93H200.6A7.41,7.41,0,0,1,208,68.34a7.36,7.36,0,0,1-4,6.56Zm-4.7-16.32a2.7,2.7,0,0,0-2.72-2.72h-5.68v5.44h5.68a2.7,2.7,0,0,0,2.72-2.72"/><path class="cls-1" d="M228.06,77.57A6.68,6.68,0,0,1,227,81.24a6.88,6.88,0,0,1-2.82,2.53,11.69,11.69,0,0,1-10.56,0,6.6,6.6,0,0,1-3.68-4.62l4.52-1.58a2.1,2.1,0,0,0,1.21,2,7.16,7.16,0,0,0,6.46,0,2.08,2.08,0,0,0,1.23-2,1.78,1.78,0,0,0-1.26-1.76l-7.42-3a5.46,5.46,0,0,1-2.59-2.13,5.83,5.83,0,0,1-1-3.32,6.17,6.17,0,0,1,1-3.38,6.39,6.39,0,0,1,2.58-2.31,9.66,9.66,0,0,1,8.44,0,6.12,6.12,0,0,1,3.21,3.56l-4.43,1.58a1.6,1.6,0,0,0-.81-.92,5.14,5.14,0,0,0-2.18-.49,5.2,5.2,0,0,0-2.2.49,1.53,1.53,0,0,0-.89,1.46,1.27,1.27,0,0,0,.89,1.22l7.47,3A6,6,0,0,1,227,73.92a6.48,6.48,0,0,1,1.05,3.65"/><rect class="cls-1" x="230.72" y="60.92" width="4.95" height="23.74"/><polygon class="cls-1" points="259.34 65.62 250.81 65.62 250.81 84.66 246.11 84.66 246.11 65.62 237.58 65.62 237.58 60.92 259.34 60.92 259.34 65.62"/><polygon class="cls-1" points="282 60.92 273.12 74.28 273.12 84.66 268.43 84.66 268.43 74.28 259.52 60.92 265.14 60.92 270.77 69.33 276.36 60.92 282 60.92"/><path class="cls-2" d="M64.47,95.93a20.4,20.4,0,0,0-38,0c.53.37,1.08.73,1.64,1.07a18.48,18.48,0,0,1,34.73,0c.56-.34,1.1-.7,1.64-1.07"/><path class="cls-2" d="M59.34,98.87a33.08,33.08,0,0,1-27.75,0,13.7,13.7,0,0,1,.7-1.78,31.18,31.18,0,0,0,26.35,0,15.3,15.3,0,0,1,.7,1.78M14,32.68V68.59A31.47,31.47,0,0,0,28.66,95.1a18.77,18.77,0,0,0-.75,1.79,33.38,33.38,0,0,1-15.78-28.3V30.76H14ZM78.8,30.76V68.59A33.42,33.42,0,0,1,63,96.89a18.84,18.84,0,0,0-.76-1.79A31.48,31.48,0,0,0,76.88,68.59V30.76Z"/><path class="cls-2" d="M59.45,98.82c-.58.27-1.17.53-1.77.77a12.78,12.78,0,0,0-24.43,0c-.6-.24-1.19-.49-1.77-.77a14.7,14.7,0,0,1,28,0"/><rect class="cls-1" x="13.87" y="53.29" width="14.56" height="1.91"/><path class="cls-2" d="M43.55,42.39A20.45,20.45,0,0,0,26.49,55.2h2.08a18.5,18.5,0,0,1,15-10.88ZM64.43,55.2A20.42,20.42,0,0,0,47.38,42.39v1.93a18.5,18.5,0,0,1,15,10.88Z"/><rect class="cls-1" x="63.45" y="53.29" width="14.56" height="1.91"/><path class="cls-2" d="M40.18,44.87c-4.4,17.21,5.8,20.39,4.16,33.49a20.28,20.28,0,0,1-1.8,6.06,1,1,0,0,1-1.74-.81c2.79-6.82,2.05-11.19-.61-18.13-3.44-9-4.22-11.87-1.85-21.14a1,1,0,0,1,1.18-.66,1,1,0,0,1,.66,1.19"/><path class="cls-2" d="M26.62,54.51c1.92,14.64,14.16,6.82,12.45,30.12a1,1,0,0,1-1.9-.22c1.64-22.35-10.34-13.68-12.46-29.78a1,1,0,0,1,.89-1,1,1,0,0,1,1,.9"/><path class="cls-2" d="M14.65,54.49C17.43,65,20.32,65,28.13,70.78,34.42,75.43,35.1,79.5,35,87a1,1,0,0,1-1,.88,1,1,0,0,1-.89-1c.08-6.8-.41-10.33-6.1-14.55-8.28-6.13-11.26-6.2-14.23-17.46a1,1,0,0,1,1.88-.37"/><path class="cls-2" d="M14.06,67.27c7.51,12.82,13.53,3.85,18.44,22.12a1,1,0,0,1-1.86.44C26,72.57,20.32,81.73,12.36,68.15a1,1,0,0,1,1.7-.88"/><path class="cls-2" d="M15.69,78.85c2.6,5.36,10.26,3.09,14.59,13.29a1,1,0,0,1-.59,1.23,1,1,0,0,1-1.22-.59c-4-9.48-11.31-6.55-14.58-13.27a1,1,0,0,1,.57-1.23,1,1,0,0,1,1.23.57"/><path class="cls-2" d="M50.75,44.87c4.39,17.21-5.81,20.39-4.17,33.49a20.59,20.59,0,0,0,1.81,6.06,1,1,0,0,0,1.73-.81c-2.79-6.82-2-11.19.62-18.13,3.44-9,4.22-11.87,1.85-21.14a1,1,0,1,0-1.84.53"/><path class="cls-2" d="M64.31,54.51c-1.92,14.64-14.16,6.82-12.45,30.12a1,1,0,0,0,1.9-.22C52.12,62.06,64.1,70.73,66.22,54.63a1,1,0,1,0-1.91-.12"/><path class="cls-2" d="M76.28,54.49C73.5,65,70.61,65,62.8,70.78c-6.29,4.65-7,8.72-6.88,16.23a1,1,0,0,0,1.91-.14c-.09-6.8.4-10.33,6.1-14.55,8.28-6.13,11.26-6.2,14.23-17.46a1,1,0,0,0-1.88-.37"/><path class="cls-2" d="M76.87,67.27c-7.52,12.82-13.53,3.85-18.44,22.12a1,1,0,1,0,1.86.44c4.64-17.26,10.32-8.1,18.27-21.68a1,1,0,1,0-1.69-.88"/><path class="cls-2" d="M75.24,78.85C72.63,84.21,65,81.94,60.65,92.14a1,1,0,1,0,1.81.64c4-9.48,11.31-6.55,14.58-13.27a1,1,0,0,0-1.8-.66"/><path class="cls-2" d="M19,24c8,0,16.23,1.61,22.6,6V28.6A42.9,42.9,0,0,0,19,20.34ZM15.8,30.32c8.9-.86,18.61-1.41,25.83,3.43V32.33c-7-5.42-16.84-6.76-25.83-6.3Zm27.75,4.86V53l0,1.54a15.9,15.9,0,0,1-1.9-1V36C33.69,29.89,22,31.6,12.13,32.62V30.69l1.76-.17V24.23c1.06-.08,2.14-.13,3.22-.16V18.33c9.36.21,19.38,3.53,26.44,9.41v7.44Z"/><path class="cls-2" d="M71.81,24c-8,0-16.23,1.61-22.61,6V28.6a42.94,42.94,0,0,1,22.61-8.26ZM75,30.32c-8.9-.86-18.61-1.41-25.83,3.43V32.33C56.2,26.91,66,25.57,75,26ZM47.29,35.18V53c0,.47,0,1,0,1.52a9.79,9.79,0,0,0,1.89-.94V36c7.95-6.15,19.64-4.44,29.51-3.42V30.69L77,30.52V24.23c-1.06-.08-2.14-.13-3.23-.16V18.33c-9.35.21-19.37,3.53-26.43,9.41v7.44Z"/><path class="cls-2" d="M36.38,14.63c4.25-.56,10.86,3.81,9.71,8.71-5.76,1.23-9.34-4.18-9.71-8.71m-.25-1.9a11.33,11.33,0,0,1,7.24,1.93c3,2,5.47,5.36,4.58,9.12L47.68,25l-1.19.25c-6.62,1.41-11.53-4.31-12-10.43L34.33,13Z"/><path class="cls-2" d="M54.46,14.63c-4.25-.56-10.87,3.81-9.71,8.71,5.76,1.23,9.34-4.18,9.71-8.71m.24-1.9a11.28,11.28,0,0,0-7.23,1.93c-3,2-5.47,5.36-4.59,9.12L43.16,25l1.19.25c6.61,1.41,11.52-4.31,12-10.43L56.51,13Z"/><path class="cls-2" d="M27.66,1.92c.45,4,3.49,7.83,7.81,7.11.42-2.33-1.33-4.44-3.17-5.64a8.34,8.34,0,0,0-4.64-1.47M27.05.05a9.93,9.93,0,0,1,6.3,1.73C36,3.5,38.07,6.46,37.28,9.72l-.23.94-.95.2C30.32,12.05,26.1,7,25.71,1.68L25.61.23Z"/><path class="cls-2" d="M20.6,11.18c3.06-1.39,9,.36,9.29,4.31-4,2.24-8-1-9.29-4.31m-.79-1.75A9.3,9.3,0,0,1,26,9.2c2.92.83,5.62,2.94,5.83,6.16l.08,1.21-1.06.59c-4.86,2.7-10.13-.56-12-5.28l-.67-1.69Z"/><path class="cls-2" d="M41.22,5.56a4,4,0,0,0,1.29,3.6,5,5,0,0,0-1.29-3.6M40.33,3C43,4,45.44,8.71,43.18,11.2c-3.76-1.15-4.1-5.46-2.85-8.22"/><path class="cls-2" d="M63.18,1.92c-.45,4-3.49,7.83-7.81,7.11C55,6.7,56.7,4.59,58.54,3.39a8.34,8.34,0,0,1,4.64-1.47m.6-1.87a9.88,9.88,0,0,0-6.29,1.73c-2.62,1.72-4.72,4.68-3.93,7.94l.23.94,1,.2c5.77,1.19,10-3.85,10.39-9.18l.1-1.45Z"/><path class="cls-2" d="M70.23,11.18c-3.06-1.39-9,.36-9.28,4.31,4,2.24,8-1,9.28-4.31M71,9.43a9.27,9.27,0,0,0-6.15-.23C62,10,59.25,12.14,59,15.36L59,16.57l1.06.59c4.86,2.7,10.13-.56,12-5.28l.67-1.69Z"/><path class="cls-2" d="M49.62,5.56a4.06,4.06,0,0,1-1.29,3.6,5,5,0,0,1,1.29-3.6M50.51,3C47.85,4,45.4,8.71,47.66,11.2c3.76-1.15,4.1-5.46,2.85-8.22"/><path class="cls-2" d="M45.39,30.11a5.15,5.15,0,0,0,3-.91l-.24-1.42-.59-.25a3.32,3.32,0,0,1-2.14.74,3.28,3.28,0,0,1-2.07-.69l-.64,1.79a5.31,5.31,0,0,0,2.71.74"/><path class="cls-2" d="M45.39,54.87a5.15,5.15,0,0,0,3-.91l-.24-1.42-.59-.26a3.27,3.27,0,0,1-2.14.75,3.34,3.34,0,0,1-2.07-.69l-.64,1.78a5.22,5.22,0,0,0,2.71.75"/><path class="cls-2" d="M77.37,98.53a.71.71,0,0,0-.31.08,71.34,71.34,0,0,1-63.2,0,.65.65,0,0,0-.53,0,.73.73,0,0,0-.4.35L7.42,110.06a.7.7,0,0,0,.31.94,85.13,85.13,0,0,0,75.47,0,.71.71,0,0,0,.31-.94L78,98.92a.69.69,0,0,0-.4-.35.93.93,0,0,0-.23,0m-31.91,8.86a73,73,0,0,0,31.6-7.23L82,110.05a83.7,83.7,0,0,1-73,0l4.89-9.89a73,73,0,0,0,31.59,7.23"/><path class="cls-2" d="M7.57,91.18a.63.63,0,0,0-.3.07.69.69,0,0,0-.4.56c-.2,2.14-.32,4.32-.36,6.5-2,1.17-4,2.28-6.12,3.3a.71.71,0,0,0-.39.58.69.69,0,0,0,.31.62A81.68,81.68,0,0,0,9.24,108a.69.69,0,0,0,.53,0,.66.66,0,0,0,.4-.35l3.7-7.48a72.59,72.59,0,0,0,7.7,3.19.7.7,0,0,0,.53,0,.66.66,0,0,0,.35-.4l1.12-3.2a.7.7,0,0,0-.43-.89A68.06,68.06,0,0,1,8,91.3a.66.66,0,0,0-.38-.12M2.1,102.32c1.86-.95,3.7-2,5.46-3a.67.67,0,0,0,.34-.58c0-1.88.12-3.77.26-5.62A70,70,0,0,0,22,99.92l-.65,1.88a73.85,73.85,0,0,1-7.51-3.19.65.65,0,0,0-.53,0,.73.73,0,0,0-.4.35l-3.7,7.48c-2.43-1.24-4.83-2.61-7.13-4.08"/><path class="cls-2" d="M13.55,99.23a71.16,71.16,0,0,0,8.24,3.46c.38-1.07.75-2.13,1.12-3.2a64.21,64.21,0,0,1-9.36-.26"/><path class="cls-2" d="M13.55,98.53a.7.7,0,0,0-.31,1.33,74.8,74.8,0,0,0,8.33,3.49.7.7,0,0,0,.53,0,.71.71,0,0,0,.36-.4l1.07-3.08a.68.68,0,0,0,.09-.35.7.7,0,0,0-.7-.7h0a63.82,63.82,0,0,1-9.26-.25h-.07m7.82,3.27c-1.37-.49-2.73-1-4.07-1.6,1.55.06,3.08.07,4.62,0Z"/><path class="cls-2" d="M83.36,91.18a.69.69,0,0,0-.39.12,68.2,68.2,0,0,1-15.18,7.53.69.69,0,0,0-.43.89l1.11,3.2a.68.68,0,0,0,.36.4.7.7,0,0,0,.53,0,71.73,71.73,0,0,0,7.7-3.19l3.7,7.48a.66.66,0,0,0,.4.35.7.7,0,0,0,.53,0,82.16,82.16,0,0,0,8.92-5.14.72.72,0,0,0,.32-.63.7.7,0,0,0-.4-.58c-2.08-1-4.14-2.13-6.12-3.3,0-2.18-.16-4.36-.36-6.5a.68.68,0,0,0-.39-.56.63.63,0,0,0-.3-.07M68.9,99.92A69.42,69.42,0,0,0,82.76,93.1c.15,1.86.24,3.74.27,5.62a.68.68,0,0,0,.33.58c1.77,1.06,3.61,2.07,5.47,3-2.31,1.47-4.7,2.84-7.13,4.08L78,98.92a.69.69,0,0,0-.4-.35.68.68,0,0,0-.54,0,70.92,70.92,0,0,1-7.5,3.19Z"/><path class="cls-2" d="M77.37,99.23a71.16,71.16,0,0,1-8.24,3.46L68,99.49a64.08,64.08,0,0,0,9.35-.26"/><path class="cls-2" d="M77.37,98.53H77.3a63.65,63.65,0,0,1-9.25.25.72.72,0,0,0-.59.28.69.69,0,0,0-.1.65l1.11,3.2a.68.68,0,0,0,.36.4.7.7,0,0,0,.53,0,71.87,71.87,0,0,0,8.25-3.46.69.69,0,0,0,.48-.66.71.71,0,0,0-.7-.7h0m-6.47,1.72c.9,0,1.81,0,2.72,0-1.34.57-2.69,1.11-4.06,1.6L69,100.23l1.89,0"/><path class="cls-1" d="M35.92,115l.13-1.28,1.28.12-.13,1.28Zm.35-3.55.12-1.28,1.28.13-.12,1.27Zm-2.19-1.18-1.16,5.32-1-.21L33.08,110l-.91-.2.2-.91c2.51.55,2.59.56,1.71,1.32m-8,3.54a2.3,2.3,0,0,1-1-.44.72.72,0,0,1-.32-.72.66.66,0,0,1,.81-.53,1.44,1.44,0,0,1,.92.8,1.76,1.76,0,0,0,.93-.17.75.75,0,0,0,.39-.51c0-.13,0-.21-.17-.24a1.72,1.72,0,0,0-.52,0,1.6,1.6,0,0,1-.45,0,1.49,1.49,0,0,1-.89-.85,1.9,1.9,0,0,1-.3-1.28.68.68,0,0,1,.41-.48,1.07,1.07,0,0,1,.71-.06l3.51.76.13-.62-5-1.09.19-.91L32.84,109l-.19.91-1.34-.29-1.15,5.32-1-.21.85-3.92-3.15-.68c-.17,0-.27,0-.3.13a.73.73,0,0,0,.18.51c.15.21.28.32.38.34a2.47,2.47,0,0,0,.65,0,3.57,3.57,0,0,1,.65,0,.65.65,0,0,1,.46.38,1,1,0,0,1,.07.68,1.65,1.65,0,0,1-.6,1,2,2,0,0,1-1.22.37c.61.54.94.81,1,.82h0l-.9.57a9,9,0,0,1-1.1-1.2m-3.47-3.87.67-2.21-2-.61-.57,1.87a1,1,0,0,0,.05.71.86.86,0,0,0,.57.46,1.41,1.41,0,0,0,1.28-.22m-2.22.77a1.6,1.6,0,0,1-.67-.85,1.72,1.72,0,0,1,0-1.12l.58-1.92-.84-.26.27-.89,6.11,1.86-.27.89-1.3-.4-1.58,5.21-1-.29.6-2-3.63,1.19-.3-.81Z"/><path class="cls-1" d="M70.21,112.59l-.32-1.24,1.25-.32.31,1.24Zm-.88-3.45L69,107.89l1.24-.31.32,1.24Zm-2-.85-1.32.29,1.19,5.31-1,.23L65,108.81l-.91.2-.2-.91,3.22-.72ZM62.54,112l2.37,2-.65.74-4-3.53.67-.79.7.64a.82.82,0,0,0,.74.25.48.48,0,0,0,.36-.27.68.68,0,0,0,.05-.47l-.34-1.47-2.73.61-.13-.65L64.39,108l.21.91-1.13.25.31,1.35a1.43,1.43,0,0,1-.11.93A1,1,0,0,1,63,112a.94.94,0,0,1-.44,0m-2.2-2.31-1.36.44.53,5.42-1,.1L58,110.21l-.92.09-.09-.92.92-.09a3.44,3.44,0,0,0-1-1.26,1.75,1.75,0,0,0-1.25-.38,1,1,0,0,0-.6.26.63.63,0,0,0-.22.55,1,1,0,0,0,.28.6,2.43,2.43,0,0,0,.7.54l-1,.11a1.53,1.53,0,0,1-.89-1.21,1.32,1.32,0,0,1,.42-1.13,2,2,0,0,1,1.24-.53,2.6,2.6,0,0,1,1.88.57,4.56,4.56,0,0,1,1.44,1.78l1.38-.13Zm-6.6,5.46a2,2,0,0,1-1.26-.3,1.27,1.27,0,0,1-.63-1,1.16,1.16,0,0,1,.42-1.08A2,2,0,0,1,51,111.12a1.13,1.13,0,0,1,.31-1,1.62,1.62,0,0,1,1-.46,1.43,1.43,0,0,1,.93.2.91.91,0,0,1,.44.69.82.82,0,0,1-.32.75,1.58,1.58,0,0,1-.88.36l-.06-.64a.6.6,0,0,0,.32-.1.26.26,0,0,0,.09-.24.26.26,0,0,0-.13-.22.5.5,0,0,0-.32-.05.68.68,0,0,0-.42.17.5.5,0,0,0-.11.41c0,.49.41.89,1.08,1.19a3.48,3.48,0,0,1,1.22-.34l.41.76a3.18,3.18,0,0,0-1.33.34.7.7,0,0,0-.39.69.58.58,0,0,0,.27.43,1,1,0,0,0,.6.12A2,2,0,0,0,55.39,113l-.24-2.48-1,.1-.09-.93,3.39-.33.09.93-1.36.13.53,5.42-1,.1-.18-1.84a2.19,2.19,0,0,1-1.76,1.06"/><path class="cls-2" d="M35.37,110.31A79.71,79.71,0,0,1,18,106l.46-.94a78.69,78.69,0,0,0,17.12,4.2Zm32.72-2.09a81.37,81.37,0,0,1-14,2.48l-.19-1a80.37,80.37,0,0,0,14-2.48Z"/><polygon class="cls-2" points="43.95 109.61 44.59 111.58 46.66 111.58 44.98 112.8 45.63 114.77 43.95 113.55 42.27 114.77 42.92 112.8 41.23 111.58 43.31 111.58 43.95 109.61"/><rect class="cls-1" x="95.56" y="92.31" width="186.43" height="3.88"/><path class="cls-1" d="M101.87,110.31a1.18,1.18,0,0,0,.57-.79l.29-1.1a2.42,2.42,0,0,0,.11-.65c0-.44-.29-.53-1-.56l.07-.25c.43,0,1.19,0,1.75,0s1,0,1.32,0l-.07.25c-.56,0-.67.15-.92,1.08l-.67,2.48H103a1.66,1.66,0,0,0,0-.33c0-.2,0-.38-.19-.38s-.17,0-.48.21a3.77,3.77,0,0,1-2.13.68c-2.05,0-3.16-1-3.16-2.87,0-2.84,2.22-6.37,5.49-6.37a2.58,2.58,0,0,1,2.06.82.35.35,0,0,0,.22.12c.16,0,.31-.23.5-.76h.27a20.43,20.43,0,0,0-.8,2.89h-.28a7.82,7.82,0,0,0,.06-1,1.88,1.88,0,0,0-.17-.91,2.18,2.18,0,0,0-1.93-1c-2.79,0-4.25,4.2-4.25,6.55,0,1.51.7,2.21,2.17,2.21a2.94,2.94,0,0,0,1.43-.39"/><path class="cls-1" d="M113,104.15c1,0,1.72.64,1.72,2,0,1.84-1.28,4.83-3.63,4.83-1,0-1.72-.64-1.72-2,0-1.84,1.28-4.83,3.63-4.83m-2.55,5.46c0,.75.24,1.09.72,1.09,1.35,0,2.47-3,2.47-5.21,0-.76-.24-1.09-.71-1.09-1.35,0-2.48,3-2.48,5.21"/><path class="cls-1" d="M118.82,112.45l-.06-.17a2.44,2.44,0,0,0,1.33-1.65,1.05,1.05,0,0,1-.66.32.42.42,0,0,1-.47-.44,1.28,1.28,0,0,1,1.15-1.16c.4,0,.55.36.55.73a2.89,2.89,0,0,1-1.84,2.37"/><path class="cls-1" d="M134.39,109.22c0,.85.35,1.2.88,1.2a2.32,2.32,0,0,0,1.88-1.25l.25.1a3.2,3.2,0,0,1-2.53,1.68c-1,0-1.65-.62-1.65-1.84,0-1.94,1.44-5,3.79-5,.74,0,1.36.4,1.36,1.07a1,1,0,0,1-.9,1,.46.46,0,0,1-.51-.49,1,1,0,0,1,.94-.94.94.94,0,0,0-.85-.39c-1.28,0-2.66,2.27-2.66,4.82"/><path class="cls-1" d="M148,109.66c-.36,1-1,1.29-1.52,1.29s-.88-.29-.88-.77a3.47,3.47,0,0,1,.2-1L147,105.6a2,2,0,0,0,.14-.62.38.38,0,0,0-.41-.43c-.93,0-2.14,1.87-3.07,4.65l-.46,1.57h-1.09l2.48-8.36a1.27,1.27,0,0,0,.07-.35c0-.33-.24-.48-.87-.48l.08-.26a5,5,0,0,0,2.26-.52L144.31,107c.93-2.09,1.79-2.87,2.83-2.87.76,0,1,.41,1,.95a3.31,3.31,0,0,1-.18,1l-1.22,3.66a2,2,0,0,0-.09.48c0,.18.07.3.29.3s.62-.28,1-1.28l.16-.47h.24Z"/><path class="cls-1" d="M158.7,108.73l-.31.92c-.37,1-.95,1.3-1.44,1.3a.81.81,0,0,1-.7-.33.89.89,0,0,1-.1-.44,3.77,3.77,0,0,1,.2-1l.22-.91c-.83,1.93-1.65,2.68-2.52,2.68s-1.18-.63-1.18-1.52c0-2,1.8-5.28,3.7-5.28.44,0,.76.34.8.94l.2-.77a4.27,4.27,0,0,0,1.16-.17l-1.57,5.55a1.87,1.87,0,0,0-.09.46c0,.17.07.31.28.31s.65-.31,1-1.28l.15-.46ZM157,106.67l.23-.91c0-.1,0-.19,0-.28,0-.66-.24-1.09-.69-1.09-1.1,0-2.56,3-2.56,5.19,0,.72.16,1,.44,1,.7,0,1.94-1.79,2.57-3.88"/><path class="cls-1" d="M169.46,109.66c-.37,1-1,1.29-1.52,1.29a.85.85,0,0,1-.79-.37.76.76,0,0,1-.1-.41,3.2,3.2,0,0,1,.21-1l1.19-3.59a1.83,1.83,0,0,0,.13-.61c0-.24-.09-.44-.4-.44-1,0-2.43,2.31-3.31,5.35l-.22.87h-1.09l1.5-5.38a1.52,1.52,0,0,0,.1-.47c0-.17-.07-.31-.28-.31-.37,0-.62.31-1,1.28l-.16.47h-.24l.32-.91c.36-1.06.95-1.3,1.48-1.3a.65.65,0,0,1,.75.74,4.14,4.14,0,0,1-.18,1l-.43,1.72c1.08-2.57,2-3.47,3.14-3.47.76,0,1,.41,1,.95a3.44,3.44,0,0,1-.18,1l-1.22,3.66a1.59,1.59,0,0,0-.1.47.27.27,0,0,0,.3.31c.31,0,.62-.28,1-1.28l.16-.47h.24Z"/><path class="cls-1" d="M180.52,103.44a.74.74,0,0,1-.69.72.34.34,0,0,1-.36-.36.7.7,0,0,1,.17-.45.11.11,0,0,0-.08,0,.7.7,0,0,0-.3.12,2.37,2.37,0,0,0-.69.82,1.23,1.23,0,0,1,.94,1.29,2.73,2.73,0,0,1-2.49,2.53c-.74.41-1.49.74-1.49,1.07,0,.17.26.3.75.42l.92.24c.86.23,1.42.46,1.42,1.08,0,.9-1.2,2.32-3.73,2.32-1.3,0-1.89-.39-1.89-.91s.46-1.17,2.13-1.82a.71.71,0,0,1-.47-.66c0-.5.28-.93,1.92-1.73-1,0-1.7-.45-1.7-1.36a2.69,2.69,0,0,1,2.83-2.59,3.1,3.1,0,0,1,.64.06,3.52,3.52,0,0,1,.82-.94A1.47,1.47,0,0,1,180,103c.33,0,.54.13.54.45m-5.19,7.11c-1.13.6-1.28,1.18-1.28,1.54,0,.61.51.92,1.19.92,1.14,0,2.53-.7,2.53-1.64,0-.22-.25-.26-.76-.39Zm3.06-5.36c0-.45-.16-.81-.74-.81-1.41,0-1.68,2.28-1.68,2.68,0,.6.29.82.76.82,1.4,0,1.66-1.72,1.66-2.69"/><path class="cls-1" d="M185.11,108a5.41,5.41,0,0,0-.14,1.21c0,.85.34,1.2.87,1.2a2.38,2.38,0,0,0,1.93-1.25l.2.1a3.19,3.19,0,0,1-2.52,1.68,1.55,1.55,0,0,1-1.65-1.77c0-1.82,1.75-5,4.13-5a.83.83,0,0,1,.93.83c0,1.53-2.3,2.54-3.75,3m.06-.24a6.52,6.52,0,0,0,1.71-.81,2.52,2.52,0,0,0,1-2c0-.48-.08-.57-.2-.57-.83,0-2,1.58-2.49,3.38"/><path class="cls-1" d="M201.33,109.71a1,1,0,0,0,0,.28.48.48,0,0,0,.54.5c.37,0,.75-.22,1.12-1.26l.18-.49h.24l-.27.79c-.36,1.09-.95,1.42-1.72,1.42s-1.12-.4-1.12-1a2.57,2.57,0,0,1,.12-.72l1.33-4.62h-1.13l.06-.25h1.14l.55-1.9a3.6,3.6,0,0,0,1.12-.18l-.59,2.08h1.66l0,.25h-1.69Z"/><path class="cls-1" d="M213.62,109.66c-.37,1-1,1.29-1.52,1.29s-.88-.29-.88-.77a3.47,3.47,0,0,1,.2-1l1.19-3.59a2,2,0,0,0,.14-.62.38.38,0,0,0-.41-.43c-.93,0-2.14,1.87-3.07,4.65l-.46,1.57h-1.09l2.48-8.36a1.27,1.27,0,0,0,.07-.35c0-.33-.24-.48-.87-.48l.08-.26a5,5,0,0,0,2.26-.52L209.92,107c.93-2.09,1.79-2.87,2.83-2.87.76,0,1,.41,1,.95a3.31,3.31,0,0,1-.18,1l-1.22,3.66a2,2,0,0,0-.09.48c0,.18.07.3.29.3s.62-.28,1-1.28l.16-.47h.24Z"/><path class="cls-1" d="M219.84,108a4.88,4.88,0,0,0-.14,1.21c0,.85.33,1.2.86,1.2a2.39,2.39,0,0,0,1.94-1.25l.2.1a3.2,3.2,0,0,1-2.53,1.68,1.56,1.56,0,0,1-1.65-1.77c0-1.82,1.75-5,4.13-5a.83.83,0,0,1,.94.83c0,1.53-2.31,2.54-3.75,3m0-.24a6.36,6.36,0,0,0,1.71-.81,2.49,2.49,0,0,0,1-2c0-.48-.07-.57-.2-.57-.82,0-2,1.58-2.49,3.38"/><path class="cls-1" d="M242.41,106.68c0,1.88-.9,4.27-3.1,4.27a1.31,1.31,0,0,1-1.32-.77,2.59,2.59,0,0,1-1.73.77,1.36,1.36,0,0,1-1.56-1.43c0-1.56,1.94-3.43,3.61-4.69a3.4,3.4,0,0,1-1.23.59c-.31,0-.5-.32-.79-.32s-.43.19-.62.78l-.14.47h-.24l.29-.92c.32-1,.73-1.28,1.16-1.28s.67.49,1.16.49a1.43,1.43,0,0,0,1-.39l.17-.24.27.13c-1.73,1.45-3.41,3.28-3.41,5.3,0,.84.26,1.13.69,1.13a2,2,0,0,0,1.3-.6,2.68,2.68,0,0,1-.09-.74c0-1.48,1.13-3,1.83-3,.36,0,.43.5.43.88a3.4,3.4,0,0,1-1.44,2.61,1.05,1.05,0,0,0,1,.82c1.71,0,2.47-2.32,2.47-3.89a3.26,3.26,0,0,0-.09-.82c-.48-.09-1.2-.43-1.2-1.12a.53.53,0,0,1,.53-.6c.49,0,.78.64.93,1.48a4.84,4.84,0,0,1,.11,1.05m-3.91,2a3.5,3.5,0,0,0,.08.8,3.27,3.27,0,0,0,1.22-2.39c0-.34-.05-.59-.24-.59-.41,0-1.06,1.09-1.06,2.18"/><path class="cls-1" d="M250.82,104.15c1.05,0,1.72.64,1.72,2,0,1.84-1.27,4.83-3.62,4.83-1,0-1.72-.64-1.72-2,0-1.84,1.28-4.83,3.62-4.83m-2.54,5.46c0,.75.23,1.09.71,1.09,1.36,0,2.47-3,2.47-5.21,0-.76-.24-1.09-.71-1.09-1.35,0-2.47,3-2.47,5.21"/><path class="cls-1" d="M262.56,104.86a.91.91,0,0,1-.88.91.45.45,0,0,1-.5-.45.85.85,0,0,1,.56-.81.2.2,0,0,0-.14-.05c-.91,0-2,2.17-3,5.27l-.26,1h-1.09l1.5-5.38a1.9,1.9,0,0,0,.09-.49c0-.2-.09-.29-.26-.29-.37,0-.66.36-1,1.28l-.17.47h-.23l.31-.91c.37-1.06,1-1.3,1.52-1.3a.64.64,0,0,1,.72.73,4.76,4.76,0,0,1-.18,1l-.4,1.6c.9-2.45,1.63-3.35,2.61-3.35a.69.69,0,0,1,.74.71"/><path class="cls-1" d="M267.29,109.71a1.65,1.65,0,0,0-.08.44c0,.21.09.34.29.34s.6-.33.94-1.28l.17-.47h.23l-.31.92c-.33,1-.87,1.29-1.51,1.29s-.86-.35-.86-.81a3.66,3.66,0,0,1,.17-1l2.05-6.78a1.28,1.28,0,0,0,.06-.35c0-.33-.23-.48-.85-.48l.08-.26a4.94,4.94,0,0,0,2.24-.52Z"/><path class="cls-1" d="M279.45,108.74l-.29.92c-.32,1-1,1.29-1.46,1.29a.7.7,0,0,1-.79-.78,4.27,4.27,0,0,1,.16-1l.17-.63c-.82,1.72-1.61,2.39-2.5,2.39s-1.3-.52-1.3-1.66c0-2,1.73-5.14,4.05-5.14a.83.83,0,0,1,.77.6l.62-2.34a1.16,1.16,0,0,0,.06-.34c0-.33-.23-.49-.86-.49l.08-.26a4.74,4.74,0,0,0,2.21-.52l-2.45,8.91a1.75,1.75,0,0,0-.07.43c0,.2.07.35.3.35s.58-.33.91-1.28l.15-.47Zm-1.75-1.92.47-1.74c-.11-.46-.38-.64-.67-.64-1.6,0-2.94,3-2.94,5,0,.74.18,1.09.55,1.09.73,0,1.95-1.72,2.59-3.73"/><path class="cls-1" d="M135.53,135.29a1.62,1.62,0,0,0,.06-.38.36.36,0,0,0-.14-.32.93.93,0,0,0-.48-.12l0-.17c.19,0,.48,0,.85,0s.61,0,.8,0l0,.17a1.35,1.35,0,0,0-.47.09.66.66,0,0,0-.26.24,1.94,1.94,0,0,0-.17.49l-.66,2.54a4.58,4.58,0,0,1-.83,1.8,2.44,2.44,0,0,1-.76.58,2.33,2.33,0,0,1-1,.21,1.63,1.63,0,0,1-1.3-.46,1.28,1.28,0,0,1-.29-.86,5.27,5.27,0,0,1,.21-1.24l.7-2.66a1.58,1.58,0,0,0,.07-.4.3.3,0,0,0-.06-.2.34.34,0,0,0-.17-.09,2.27,2.27,0,0,0-.34,0l.05-.17c.23,0,.59,0,1.09,0s.79,0,1.06,0l0,.17a1.59,1.59,0,0,0-.46.07.47.47,0,0,0-.24.2,1.66,1.66,0,0,0-.17.46l-.75,2.8a5.15,5.15,0,0,0-.18,1.15,1,1,0,0,0,.23.72,1,1,0,0,0,.77.25,1.78,1.78,0,0,0,1.4-.58,3.85,3.85,0,0,0,.78-1.61Zm-12,4.13a1.47,1.47,0,0,0-.08.42.27.27,0,0,0,.11.23.77.77,0,0,0,.4.08,2.9,2.9,0,0,0,1.8-.58,3.56,3.56,0,0,0,1.13-1.52,5.67,5.67,0,0,0,.38-2.09,1.42,1.42,0,0,0-.43-1.13,2.09,2.09,0,0,0-1.38-.37,1.17,1.17,0,0,0-.42.06.49.49,0,0,0-.24.21,2.14,2.14,0,0,0-.17.45Zm-.15-5.12.83,0h.2l1.28,0a2.81,2.81,0,0,1,1.79.48,1.68,1.68,0,0,1,.6,1.4,4.13,4.13,0,0,1-.52,2,4.23,4.23,0,0,1-1.44,1.53,3.85,3.85,0,0,1-2,.58h-.55l-.64,0c-.45,0-.79,0-1,0l0-.17a1.43,1.43,0,0,0,.44-.07.42.42,0,0,0,.24-.2,1.66,1.66,0,0,0,.17-.46l1.11-4.2a2.18,2.18,0,0,0,.08-.42.24.24,0,0,0-.13-.23,1,1,0,0,0-.44-.08Zm-7.06,0q.84,0,2.46,0c.79,0,1.35,0,1.69,0-.15.41-.26.75-.33,1a4.46,4.46,0,0,0-.12.52h-.19a4.41,4.41,0,0,0,.07-.68.69.69,0,0,0-.08-.38.46.46,0,0,0-.26-.21,1.69,1.69,0,0,0-.51-.06h-.62a1.32,1.32,0,0,0-.45.05.45.45,0,0,0-.24.19,2,2,0,0,0-.18.46l-.53,2h.56a.8.8,0,0,0,.63-.25,1.88,1.88,0,0,0,.31-.52l.14-.35h.2c-.12.36-.2.63-.25.83s-.09.32-.1.37c-.08.27-.17.67-.27,1.21h-.2s0-.12,0-.25a2,2,0,0,0,0-.33.62.62,0,0,0-.13-.4.63.63,0,0,0-.46-.14H117l-.54,2a1.69,1.69,0,0,0-.08.41.27.27,0,0,0,.06.19.38.38,0,0,0,.18.08,1.57,1.57,0,0,0,.34,0h.61a2,2,0,0,0,.84-.14,1.18,1.18,0,0,0,.52-.45,4.35,4.35,0,0,0,.43-.91h.19c-.05.14-.11.34-.18.61a9.74,9.74,0,0,0-.23,1.09c-.38,0-1,0-1.94,0-1.08,0-1.9,0-2.45,0l.05-.17a1.51,1.51,0,0,0,.45-.07.42.42,0,0,0,.24-.2,1.82,1.82,0,0,0,.18-.46l1.12-4.2a1.78,1.78,0,0,0,.08-.41.27.27,0,0,0-.06-.19.3.3,0,0,0-.17-.09,2.11,2.11,0,0,0-.34,0Zm-8,0c.31,0,.64,0,1,0a5.85,5.85,0,0,0,.64,0l0,.17a1.45,1.45,0,0,0-.85.74l-3.34,5.13h-.13l-.67-5.32a.65.65,0,0,0-.16-.41.47.47,0,0,0-.28-.14l0-.17c.22,0,.52,0,.91,0s.77,0,1,0l0,.17a2.68,2.68,0,0,0-.4.05.37.37,0,0,0-.22.14.62.62,0,0,0-.07.31s0,.11,0,.21l.48,4.09,2.34-3.59a1.75,1.75,0,0,0,.37-.84.27.27,0,0,0-.16-.27,1.06,1.06,0,0,0-.47-.1Zm-10,3a2.34,2.34,0,0,0,1.66-.49,1.79,1.79,0,0,0,.51-1.33,1,1,0,0,0-.26-.75,1.15,1.15,0,0,0-.81-.24,1,1,0,0,0-.4.07.43.43,0,0,0-.23.21,1.7,1.7,0,0,0-.17.45l-.56,2.08Zm3,2,0,.11a1.87,1.87,0,0,1-.39.79.82.82,0,0,1-.62.25.87.87,0,0,1-.42-.1.67.67,0,0,1-.26-.27.81.81,0,0,1-.09-.37v-.08l.07-.94a2.53,2.53,0,0,0,0-.27,1,1,0,0,0-.13-.55.75.75,0,0,0-.46-.29,4.43,4.43,0,0,0-1-.1l-.52,2a2.26,2.26,0,0,0-.08.41.23.23,0,0,0,.13.24.92.92,0,0,0,.45.08l0,.17c-.26,0-.62,0-1,0s-.86,0-1.1,0l0-.17a1.53,1.53,0,0,0,.46-.07.42.42,0,0,0,.24-.2,1.54,1.54,0,0,0,.17-.46l1.12-4.2a1.72,1.72,0,0,0,.08-.4.29.29,0,0,0-.13-.25,1.13,1.13,0,0,0-.45-.08l0-.17c.23,0,.58,0,1,0h1.24a2.13,2.13,0,0,1,1.26.32,1.07,1.07,0,0,1,.43.88,1.45,1.45,0,0,1-.27.84,2.23,2.23,0,0,1-.78.66,3.83,3.83,0,0,1-1.17.37l.3.05a2.24,2.24,0,0,1,.53.16.73.73,0,0,1,.31.29,1,1,0,0,1,.1.49,1.53,1.53,0,0,1,0,.18l-.06.86a1.23,1.23,0,0,0,0,.17c0,.35.09.52.26.52a.29.29,0,0,0,.26-.17,2.73,2.73,0,0,0,.26-.54l0-.12Zm-12.54-3.33a7.28,7.28,0,0,1,.39-1.13,2.21,2.21,0,0,1,.48-.71,1.54,1.54,0,0,1,.47-.31,1.47,1.47,0,0,1,.59-.11.85.85,0,0,1,.58.17.5.5,0,0,1,.22.43.57.57,0,0,1-.08.28.7.7,0,0,1-.2.22.57.57,0,0,1-.29.08.37.37,0,0,1-.25-.07.26.26,0,0,1-.09-.21.57.57,0,0,1,.13-.36.72.72,0,0,1,.36-.21c0-.06,0-.1-.12-.14a.45.45,0,0,0-.27-.07.75.75,0,0,0-.49.22,1.25,1.25,0,0,0-.3.53c-.08.23-.16.5-.24.78l-.15.61h1l0,.17h-1L88,141.77a2.75,2.75,0,0,0-.76.12l1.55-5.77H88l0-.17h.76ZM84,136a1,1,0,0,0-.82.55,4.3,4.3,0,0,0-.62,1.38,5.59,5.59,0,0,0-.23,1.58c0,.49.16.74.48.74a1.07,1.07,0,0,0,.82-.55,4.39,4.39,0,0,0,.61-1.38,5.62,5.62,0,0,0,.24-1.58,1,1,0,0,0-.12-.56A.4.4,0,0,0,84,136m-2.4,3.09a4,4,0,0,1,.3-1.44,3.38,3.38,0,0,1,.85-1.29,1.83,1.83,0,0,1,1.3-.53,1.11,1.11,0,0,1,.85.33,1.48,1.48,0,0,1,.3,1,3.92,3.92,0,0,1-.29,1.43,3.63,3.63,0,0,1-.85,1.3,1.85,1.85,0,0,1-1.3.53,1.09,1.09,0,0,1-.85-.34,1.38,1.38,0,0,1-.31-1m-7.1-3.1a1,1,0,0,0-.61.32,3.39,3.39,0,0,0-.62.84,4.38,4.38,0,0,0-.45,1.12,4.23,4.23,0,0,0,1.15-.55,1.7,1.7,0,0,0,.67-1.35.68.68,0,0,0,0-.3.11.11,0,0,0-.1-.08m.21,3.29a2.79,2.79,0,0,1-.43.56,2.49,2.49,0,0,1-.6.42,1.61,1.61,0,0,1-.67.16,1.07,1.07,0,0,1-.82-.31,1.23,1.23,0,0,1-.3-.89,3.55,3.55,0,0,1,.38-1.45,4.2,4.2,0,0,1,1-1.37,2.06,2.06,0,0,1,1.4-.57.68.68,0,0,1,.45.15.51.51,0,0,1,.17.41,1.43,1.43,0,0,1-.76,1.19,7.65,7.65,0,0,1-1.77.85,3.88,3.88,0,0,0-.09.82c0,.54.19.81.58.81a1.61,1.61,0,0,0,1.31-.85Zm-6.4-3.46a7.77,7.77,0,0,0-1.07,1.69,5,5,0,0,0-.46,1.71c0,.1,0,.16,0,.2,0,.48.13.72.38.72a1.49,1.49,0,0,0,1.11-.52,3.93,3.93,0,0,0,.79-1.24,3.87,3.87,0,0,0,.31-1.29,1.39,1.39,0,0,1-.46-.37.75.75,0,0,1-.15-.54.32.32,0,0,1,.12-.27.38.38,0,0,1,.25-.09.39.39,0,0,1,.36.23,1.36,1.36,0,0,1,.12.63c0,.09,0,.2,0,.33a5.74,5.74,0,0,1-.45,1.66,3.5,3.5,0,0,1-.91,1.26,2,2,0,0,1-1.32.49.88.88,0,0,1-.73-.28,1,1,0,0,1-.24-.68v-.09a3.5,3.5,0,0,1,.59-1.55,8.31,8.31,0,0,1,1.38-1.67,2.94,2.94,0,0,0-.42.22l-.41.24a.65.65,0,0,1-.29.07.27.27,0,0,1-.13,0l-.19-.11a.43.43,0,0,0-.21-.08.28.28,0,0,0-.22.11,1.4,1.4,0,0,0-.19.42l-.1.31h-.16l.18-.62c.16-.57.43-.86.8-.86a.53.53,0,0,1,.31.11l.24.17a.48.48,0,0,0,.22,0,1,1,0,0,0,.71-.26l.09-.17Zm-6.1.84a1,1,0,0,0,.06-.31q0-.21-.18-.21a.45.45,0,0,0-.35.2,2.89,2.89,0,0,0-.32.66l-.12.32h-.16l.22-.62a1.3,1.3,0,0,1,.46-.67.94.94,0,0,1,.59-.2c.38,0,.56.18.56.53a2,2,0,0,1-.14.65l-.9,2.57a.8.8,0,0,0-.07.31.18.18,0,0,0,.2.21.41.41,0,0,0,.33-.19,3.08,3.08,0,0,0,.34-.67l.11-.32H63l-.22.63a1.37,1.37,0,0,1-.44.66,1,1,0,0,1-.6.21c-.39,0-.59-.17-.59-.52a2.05,2.05,0,0,1,.15-.67Zm.25-2.15a.59.59,0,0,1,.09-.31.69.69,0,0,1,.24-.24.53.53,0,0,1,.3-.09.43.43,0,0,1,.31.12.45.45,0,0,1,.12.32.59.59,0,0,1-.09.31.69.69,0,0,1-.24.24.59.59,0,0,1-.31.09.38.38,0,0,1-.3-.13.41.41,0,0,1-.12-.31m-5.34,5.07a.63.63,0,0,0,0,.19.32.32,0,0,0,.1.25.4.4,0,0,0,.27.08.58.58,0,0,0,.4-.18,1.78,1.78,0,0,0,.35-.66l.12-.34h.16l-.17.54a1.5,1.5,0,0,1-.47.74,1.08,1.08,0,0,1-.69.22.74.74,0,0,1-.57-.19.66.66,0,0,1-.19-.51,2,2,0,0,1,.08-.49l.89-3.11h-.76l0-.17h.76l.37-1.29a2.52,2.52,0,0,0,.76-.12L58.1,136h1.12l0,.17H58.06Zm-4.37-2.67c0-.09,0-.15,0-.18a.94.94,0,0,0-.13-.54.38.38,0,0,0-.34-.2c-.24,0-.5.19-.77.56a5.67,5.67,0,0,0-1,2.94,1.25,1.25,0,0,0,.08.51.23.23,0,0,0,.22.15c.15,0,.34-.13.56-.37a4.56,4.56,0,0,0,.65-1,7.4,7.4,0,0,0,.52-1.29Zm1,2-.22.62a1.37,1.37,0,0,1-.43.67.84.84,0,0,1-.54.21.61.61,0,0,1-.28-.06.52.52,0,0,1-.19-.17.65.65,0,0,1-.07-.29,1.15,1.15,0,0,1,0-.26l.06-.26a1.66,1.66,0,0,1,0-.16l.15-.61a4.66,4.66,0,0,1-.83,1.38,1.25,1.25,0,0,1-.88.43.72.72,0,0,1-.59-.28,1.23,1.23,0,0,1-.2-.75,4,4,0,0,1,.36-1.53,4.63,4.63,0,0,1,.95-1.44,1.68,1.68,0,0,1,1.19-.59.45.45,0,0,1,.37.17.84.84,0,0,1,.17.46l.13-.51a2.66,2.66,0,0,0,.78-.12l-1,3.74a1.11,1.11,0,0,0-.07.31c0,.15.07.22.19.22s.47-.29.65-.87l.11-.31Zm-7.16-2.26a1,1,0,0,0,.06-.31q0-.21-.18-.21a.45.45,0,0,0-.35.2,2.89,2.89,0,0,0-.32.66l-.12.32h-.16l.22-.62a1.3,1.3,0,0,1,.46-.67.94.94,0,0,1,.59-.2c.38,0,.56.18.56.53a2,2,0,0,1-.14.65l-.9,2.57a.8.8,0,0,0-.07.31.18.18,0,0,0,.2.21.41.41,0,0,0,.33-.19,3.08,3.08,0,0,0,.34-.67l.11-.32h.16l-.22.63a1.37,1.37,0,0,1-.44.66,1,1,0,0,1-.6.21c-.39,0-.59-.17-.59-.52a2.05,2.05,0,0,1,.15-.67Zm.25-2.15a.59.59,0,0,1,.09-.31.69.69,0,0,1,.24-.24.53.53,0,0,1,.3-.09.41.41,0,0,1,.31.12.45.45,0,0,1,.12.32.59.59,0,0,1-.09.31.69.69,0,0,1-.24.24.59.59,0,0,1-.31.09.38.38,0,0,1-.3-.13.41.41,0,0,1-.12-.31m-5.34,5.07a.63.63,0,0,0,0,.19.3.3,0,0,0,.11.25.35.35,0,0,0,.26.08.58.58,0,0,0,.4-.18,1.78,1.78,0,0,0,.35-.66l.12-.34h.16l-.17.54a1.5,1.5,0,0,1-.47.74,1.09,1.09,0,0,1-.7.22.73.73,0,0,1-.56-.19.66.66,0,0,1-.19-.51,2,2,0,0,1,.08-.49l.89-3.11H41l0-.17h.77l.36-1.29a2.52,2.52,0,0,0,.76-.12l-.4,1.41h1.12l0,.17H42.45Zm-4.17-2.92a.8.8,0,0,0,.07-.31c0-.14-.07-.21-.19-.21a.44.44,0,0,0-.34.2,2.85,2.85,0,0,0-.33.66l-.12.32h-.15l.22-.62a1.24,1.24,0,0,1,.45-.67,1,1,0,0,1,.6-.2c.37,0,.56.18.56.53a2.24,2.24,0,0,1-.14.65L37,139.58a1,1,0,0,0-.06.31c0,.14.06.21.2.21a.41.41,0,0,0,.32-.19,2.38,2.38,0,0,0,.34-.67l.12-.32h.16l-.22.63a1.44,1.44,0,0,1-.44.66,1,1,0,0,1-.6.21c-.4,0-.59-.17-.59-.52a2,2,0,0,1,.14-.67Zm.25-2.15a.59.59,0,0,1,.09-.31.69.69,0,0,1,.24-.24.58.58,0,0,1,.3-.09.41.41,0,0,1,.31.12.45.45,0,0,1,.12.32.69.69,0,0,1-.32.55A.61.61,0,0,1,38,135a.39.39,0,0,1-.31-.13.41.41,0,0,1-.12-.31m-4.15,5q-.3.87-1,.87a.59.59,0,0,1-.54-.25.55.55,0,0,1-.06-.28,2,2,0,0,1,.14-.66l.8-2.42a1.32,1.32,0,0,0,.09-.42c0-.19-.09-.29-.27-.29a1.1,1.1,0,0,0-.74.47,6,6,0,0,0-.8,1.3,11.58,11.58,0,0,0-.69,1.84l-.15.59h-.73l1-3.64a1.17,1.17,0,0,0,.06-.31c0-.14-.06-.21-.19-.21a.4.4,0,0,0-.23.08.94.94,0,0,0-.2.27,3.33,3.33,0,0,0-.22.51l-.11.32h-.16l.21-.62c.2-.58.54-.87,1-.87a.44.44,0,0,1,.5.5A2.93,2.93,0,0,1,31,137l-.29,1.16a8.17,8.17,0,0,1,.7-1.37,2.36,2.36,0,0,1,.68-.74,1.32,1.32,0,0,1,.74-.23c.45,0,.68.21.68.64a2.32,2.32,0,0,1-.12.64l-.83,2.47a1.16,1.16,0,0,0-.06.32.18.18,0,0,0,.2.2.41.41,0,0,0,.33-.19,2.19,2.19,0,0,0,.32-.67l.12-.32h.15ZM26,136.66a.77.77,0,0,0,.06-.31q0-.21-.18-.21a.43.43,0,0,0-.34.2,3.31,3.31,0,0,0-.33.66l-.12.32h-.15l.22-.62a1.24,1.24,0,0,1,.45-.67,1,1,0,0,1,.6-.2c.37,0,.56.18.56.53a2.24,2.24,0,0,1-.14.65l-.91,2.57a1,1,0,0,0-.06.31c0,.14.06.21.2.21a.43.43,0,0,0,.33-.19,2.74,2.74,0,0,0,.33-.67l.12-.32h.16l-.22.63a1.44,1.44,0,0,1-.44.66,1,1,0,0,1-.6.21c-.4,0-.6-.17-.6-.52a2.05,2.05,0,0,1,.15-.67Zm.25-2.15a.59.59,0,0,1,.09-.31.69.69,0,0,1,.24-.24.58.58,0,0,1,.3-.09.41.41,0,0,1,.31.12.45.45,0,0,1,.12.32.69.69,0,0,1-.32.55.61.61,0,0,1-.31.09.39.39,0,0,1-.31-.13.41.41,0,0,1-.12-.31m-8.22,5q-.3.87-1,.87a.6.6,0,0,1-.54-.25.55.55,0,0,1-.06-.28,2,2,0,0,1,.14-.66l.8-2.42a1.32,1.32,0,0,0,.09-.42c0-.19-.09-.29-.27-.29a1.1,1.1,0,0,0-.74.47,6,6,0,0,0-.8,1.3,11.58,11.58,0,0,0-.69,1.84l-.15.59H14l1-3.64a1.17,1.17,0,0,0,.06-.31c0-.14-.06-.21-.19-.21a.4.4,0,0,0-.23.08.94.94,0,0,0-.2.27,4.76,4.76,0,0,0-.22.51l-.11.32H14l.21-.62c.2-.58.54-.87,1-.87a.44.44,0,0,1,.5.5,2.93,2.93,0,0,1-.12.68l-.29,1.16a8.17,8.17,0,0,1,.7-1.37,2.36,2.36,0,0,1,.68-.74,1.32,1.32,0,0,1,.74-.23c.45,0,.68.21.68.64a2.32,2.32,0,0,1-.12.64l-.83,2.47a1.16,1.16,0,0,0-.06.32.18.18,0,0,0,.2.2.41.41,0,0,0,.33-.19,2.19,2.19,0,0,0,.32-.67l.12-.32h.15Zm-7.62-2.64c0-.09,0-.15,0-.18a.94.94,0,0,0-.13-.54.38.38,0,0,0-.34-.2c-.24,0-.5.19-.77.56a5.54,5.54,0,0,0-1,2.94,1.29,1.29,0,0,0,.07.51.23.23,0,0,0,.22.15c.15,0,.34-.13.56-.37a4.56,4.56,0,0,0,.65-1,7.4,7.4,0,0,0,.52-1.29Zm1,2-.21.62a1.45,1.45,0,0,1-.44.67.84.84,0,0,1-.54.21.64.64,0,0,1-.28-.06.52.52,0,0,1-.19-.17.65.65,0,0,1-.07-.29,1.15,1.15,0,0,1,0-.26l.06-.26c0-.08,0-.13.05-.16l.15-.61A4.66,4.66,0,0,1,9.12,140a1.25,1.25,0,0,1-.88.43.72.72,0,0,1-.59-.28,1.3,1.3,0,0,1-.2-.75,4,4,0,0,1,.36-1.53,4.63,4.63,0,0,1,1-1.44,1.7,1.7,0,0,1,1.19-.59.45.45,0,0,1,.37.17.77.77,0,0,1,.17.46l.13-.51a2.66,2.66,0,0,0,.78-.12l-1.05,3.74a1.11,1.11,0,0,0-.07.31c0,.15.07.22.19.22s.47-.29.65-.87l.11-.31Z"/><path class="cls-1" d="M261.93,134.34a1.73,1.73,0,0,0-1.23.61,4.65,4.65,0,0,0-1,1.57,5.68,5.68,0,0,0-.36,2,2.91,2.91,0,0,0,.14.94,1.33,1.33,0,0,0,.42.61.94.94,0,0,0,.6.22,1.77,1.77,0,0,0,1.24-.61,4.8,4.8,0,0,0,1-1.58,5.62,5.62,0,0,0,.36-2,2.71,2.71,0,0,0-.15-1,1.29,1.29,0,0,0-.41-.61,1,1,0,0,0-.61-.21m-3.45,4a4.57,4.57,0,0,1,.45-1.93,4.23,4.23,0,0,1,1.26-1.62,2.86,2.86,0,0,1,1.82-.65,2.2,2.2,0,0,1,1.07.24,1.66,1.66,0,0,1,.69.7,2.39,2.39,0,0,1,.24,1.11,4.47,4.47,0,0,1-.46,1.93,4.39,4.39,0,0,1-1.26,1.62,2.91,2.91,0,0,1-1.82.64,2.23,2.23,0,0,1-1.07-.24,1.54,1.54,0,0,1-.68-.7,2.32,2.32,0,0,1-.24-1.1m-3.86,1a1.64,1.64,0,0,0-.07.41.33.33,0,0,0,0,.19.38.38,0,0,0,.18.09,2.11,2.11,0,0,0,.34,0l0,.17q-.41,0-1.08,0t-1.08,0l0-.17a1.43,1.43,0,0,0,.44-.07.42.42,0,0,0,.24-.2,1.66,1.66,0,0,0,.17-.46l1.12-4.2a1.58,1.58,0,0,0,.07-.4.3.3,0,0,0-.06-.2.39.39,0,0,0-.17-.09,2.11,2.11,0,0,0-.34,0l0-.17q.34,0,1.08,0t1.08,0l0,.17a1.94,1.94,0,0,0-.46.07.47.47,0,0,0-.24.2,1.82,1.82,0,0,0-.18.46Zm-5.4-4.88a9.08,9.08,0,0,0-1.09-.1,1.94,1.94,0,0,0-.95.15.65.65,0,0,1,.11.22,1,1,0,0,1,.05.27.58.58,0,0,1-.11.34.37.37,0,0,1-.32.15.32.32,0,0,1-.27-.12.4.4,0,0,1-.1-.3.69.69,0,0,1,.45-.66,2.62,2.62,0,0,1,1.14-.2c.22,0,.43,0,.64,0l1,.12a9,9,0,0,0,1.16.09,5.27,5.27,0,0,0,.63,0,1.66,1.66,0,0,0,.46-.15.66.66,0,0,1-.21-.47.52.52,0,0,1,.11-.33.36.36,0,0,1,.3-.14.36.36,0,0,1,.29.12.46.46,0,0,1,.09.29.59.59,0,0,1-.1.34.94.94,0,0,1-.29.27,2.65,2.65,0,0,1-1.34.28,7.34,7.34,0,0,1-.87-.06l-1.25,4.69a1.64,1.64,0,0,0-.07.43.32.32,0,0,0,.07.23.51.51,0,0,0,.22.12,3.32,3.32,0,0,0,.42,0l0,.17c-.3,0-.72,0-1.27,0s-1,0-1.24,0l0-.17a1.86,1.86,0,0,0,.56-.09.67.67,0,0,0,.31-.24,2.15,2.15,0,0,0,.21-.49Zm-5.88.77a1.62,1.62,0,0,0,.06-.38.35.35,0,0,0-.15-.32,1,1,0,0,0-.48-.12l0-.17c.19,0,.47,0,.85,0s.61,0,.8,0l-.05.17a1.33,1.33,0,0,0-.46.09.6.6,0,0,0-.26.24,1.94,1.94,0,0,0-.17.49l-.66,2.55a4.59,4.59,0,0,1-.83,1.79,2.21,2.21,0,0,1-.77.57,2.13,2.13,0,0,1-1,.22A1.63,1.63,0,0,1,239,140a1.23,1.23,0,0,1-.3-.86,5.27,5.27,0,0,1,.21-1.24l.71-2.66a2.23,2.23,0,0,0,.07-.4.3.3,0,0,0-.06-.2.34.34,0,0,0-.17-.09,2.27,2.27,0,0,0-.34,0l0-.17c.23,0,.59,0,1.09,0s.79,0,1.06,0l0,.17a1.94,1.94,0,0,0-.46.07.4.4,0,0,0-.24.2,1.54,1.54,0,0,0-.17.46l-.75,2.8a5.28,5.28,0,0,0-.19,1.15,1.05,1.05,0,0,0,.23.72,1,1,0,0,0,.77.25,1.75,1.75,0,0,0,1.4-.58,4,4,0,0,0,.79-1.61Zm-9.33-.77a9.08,9.08,0,0,0-1.09-.1,1.94,1.94,0,0,0-.95.15.65.65,0,0,1,.11.22,1,1,0,0,1,0,.27.58.58,0,0,1-.11.34.37.37,0,0,1-.32.15.32.32,0,0,1-.27-.12.4.4,0,0,1-.1-.3.69.69,0,0,1,.45-.66,2.62,2.62,0,0,1,1.14-.2c.22,0,.43,0,.64,0l1,.12a9,9,0,0,0,1.16.09,5.27,5.27,0,0,0,.63,0,1.66,1.66,0,0,0,.46-.15.66.66,0,0,1-.21-.47.52.52,0,0,1,.11-.33.36.36,0,0,1,.3-.14.36.36,0,0,1,.29.12.46.46,0,0,1,.1.29.6.6,0,0,1-.11.34.94.94,0,0,1-.29.27,2.65,2.65,0,0,1-1.34.28,7.34,7.34,0,0,1-.87-.06l-1.25,4.69a1.64,1.64,0,0,0-.07.43.32.32,0,0,0,.07.23.51.51,0,0,0,.22.12,3.32,3.32,0,0,0,.42,0l0,.17c-.3,0-.72,0-1.27,0s-1,0-1.23,0l0-.17a1.86,1.86,0,0,0,.56-.09.67.67,0,0,0,.31-.24,2.15,2.15,0,0,0,.21-.49Zm-6.92,4.88a1.64,1.64,0,0,0-.07.41.27.27,0,0,0,.06.19.3.3,0,0,0,.17.09,2.11,2.11,0,0,0,.34,0l0,.17q-.41,0-1.08,0t-1.08,0l0-.17a1.38,1.38,0,0,0,.44-.07.42.42,0,0,0,.24-.2,1.66,1.66,0,0,0,.17-.46l1.12-4.2a1.58,1.58,0,0,0,.07-.4.3.3,0,0,0-.06-.2.39.39,0,0,0-.17-.09,2.11,2.11,0,0,0-.34,0l0-.17q.34,0,1.08,0t1.08,0l0,.17a1.94,1.94,0,0,0-.46.07.47.47,0,0,0-.24.2,1.54,1.54,0,0,0-.17.46Zm-5.4-4.88a9.08,9.08,0,0,0-1.09-.1,1.94,1.94,0,0,0-.95.15.65.65,0,0,1,.11.22,1,1,0,0,1,.05.27.58.58,0,0,1-.11.34.37.37,0,0,1-.32.15.32.32,0,0,1-.27-.12.4.4,0,0,1-.1-.3.69.69,0,0,1,.45-.66,2.62,2.62,0,0,1,1.14-.2c.22,0,.43,0,.64,0l1,.12a9,9,0,0,0,1.16.09,5.27,5.27,0,0,0,.63,0,1.66,1.66,0,0,0,.46-.15.66.66,0,0,1-.21-.47.52.52,0,0,1,.11-.33.36.36,0,0,1,.3-.14.36.36,0,0,1,.29.12.46.46,0,0,1,.09.29.59.59,0,0,1-.1.34.94.94,0,0,1-.29.27,2.65,2.65,0,0,1-1.34.28,7.34,7.34,0,0,1-.87-.06l-1.25,4.69a1.64,1.64,0,0,0-.07.43.32.32,0,0,0,.07.23.51.51,0,0,0,.22.12,3.32,3.32,0,0,0,.42,0l0,.17c-.3,0-.72,0-1.27,0s-1,0-1.23,0l0-.17a1.86,1.86,0,0,0,.56-.09.67.67,0,0,0,.31-.24,2.15,2.15,0,0,0,.21-.49Zm-5.25-.27a8.16,8.16,0,0,0-.5,1.72h-.17a2.61,2.61,0,0,0,0-.48,1.37,1.37,0,0,0-.13-.58.93.93,0,0,0-.4-.41,1.37,1.37,0,0,0-.68-.15,1.32,1.32,0,0,0-.86.27,1,1,0,0,0-.32.8,1.83,1.83,0,0,0,.71,1.28c.47.44.83.8,1.07,1.07a1.42,1.42,0,0,1,.36,1,1.31,1.31,0,0,1-.32.92,1.91,1.91,0,0,1-.8.56,3,3,0,0,1-1,.18,2,2,0,0,1-.72-.11,1.89,1.89,0,0,1-.48-.28.49.49,0,0,0-.31-.13.21.21,0,0,0-.17.1,2.55,2.55,0,0,0-.17.36h-.17a12.93,12.93,0,0,0,.57-2h.17q0,.24-.06.39a1.38,1.38,0,0,0,0,.29c0,.83.49,1.24,1.38,1.24a1.44,1.44,0,0,0,.9-.26.94.94,0,0,0,.34-.8,1.82,1.82,0,0,0-.65-1.31c-.43-.41-.75-.74-1-1a1.54,1.54,0,0,1-.33-1,1.5,1.5,0,0,1,.27-.9,1.65,1.65,0,0,1,.69-.56,2.18,2.18,0,0,1,.9-.2,1.82,1.82,0,0,1,.61.09,2,2,0,0,1,.5.27.58.58,0,0,0,.28.15.17.17,0,0,0,.13-.1,2.47,2.47,0,0,0,.15-.34ZM207.65,139q.38-1.64.72-2.82a6.1,6.1,0,0,1,.7-1.7,1.1,1.1,0,0,1,.92-.54.59.59,0,0,1,.39.11.45.45,0,0,1,.11.32.74.74,0,0,1-.05.29.66.66,0,0,1-.17.23.44.44,0,0,1-.27.09.31.31,0,0,1-.25-.1.38.38,0,0,1-.08-.23.6.6,0,0,1,.08-.28,1,1,0,0,1,.2-.26h0a.86.86,0,0,0-.69.43,7.42,7.42,0,0,0-.79,2c-.27.93-.57,2.22-.92,3.84h-.18l-1.93-5.45c-.28,1.42-.54,2.62-.79,3.59a6.09,6.09,0,0,1-.7,1.91,1.62,1.62,0,0,1-.4.39.85.85,0,0,1-.51.15q-.51,0-.51-.45a.71.71,0,0,1,.06-.28.66.66,0,0,1,.17-.23.44.44,0,0,1,.27-.09.31.31,0,0,1,.25.1.4.4,0,0,1,.07.24.54.54,0,0,1-.07.27,1,1,0,0,1-.2.26h0a.83.83,0,0,0,.7-.44,7,7,0,0,0,.67-1.84q.35-1.33.75-3.45a1.37,1.37,0,0,0,0-.19.34.34,0,0,0-.06-.22.31.31,0,0,0-.19-.1l-.4,0,0-.17a7.29,7.29,0,0,0,.76,0,6.66,6.66,0,0,0,.68,0Zm-8,.42a2.31,2.31,0,0,0-.07.41.27.27,0,0,0,.06.19.38.38,0,0,0,.18.09,2.11,2.11,0,0,0,.34,0l0,.17c-.26,0-.62,0-1.07,0s-.83,0-1.08,0l0-.17a1.51,1.51,0,0,0,.45-.07.42.42,0,0,0,.24-.2,2.06,2.06,0,0,0,.17-.46l1.12-4.2a2.23,2.23,0,0,0,.07-.4.3.3,0,0,0-.06-.2.38.38,0,0,0-.18-.09,2.11,2.11,0,0,0-.33,0l0-.17c.23,0,.59,0,1.07,0s.82,0,1.08,0l0,.17a2,2,0,0,0-.46.07.47.47,0,0,0-.24.2,1.88,1.88,0,0,0-.17.46Zm-7.83-.88-.21.69c-.08.31-.16.67-.23,1.09-.38,0-1,0-1.94,0-1.08,0-1.9,0-2.45,0l.05-.17a1.59,1.59,0,0,0,.46-.07.44.44,0,0,0,.23-.2,1.82,1.82,0,0,0,.18-.46l1.13-4.2a1.64,1.64,0,0,0,.07-.41.33.33,0,0,0,0-.19.38.38,0,0,0-.18-.09,2.11,2.11,0,0,0-.33,0l0-.17q.36,0,1.08,0t1.08,0l-.05.17a2,2,0,0,0-.46.07.47.47,0,0,0-.24.2,1.82,1.82,0,0,0-.18.46l-1.12,4.2a1.69,1.69,0,0,0-.08.41.27.27,0,0,0,.06.19.3.3,0,0,0,.18.08,1.57,1.57,0,0,0,.34,0h.61a2.18,2.18,0,0,0,.85-.14,1.32,1.32,0,0,0,.52-.48,4.87,4.87,0,0,0,.45-1Zm-8.53-3.22-1.81,2.56h1.95Zm1,4.29a.61.61,0,0,0,.14.4.4.4,0,0,0,.27.14l0,.17c-.23,0-.54,0-.92,0s-.8,0-1,0l0-.17a1.49,1.49,0,0,0,.44-.07.4.4,0,0,0,.23-.21,1,1,0,0,0,.05-.43l-.08-1.39h-2.07l-.64.9a1.78,1.78,0,0,0-.4.84q0,.34.63.36l-.05.17q-.47,0-1,0a5.53,5.53,0,0,0-.63,0l0-.17a1.61,1.61,0,0,0,.84-.74l3.65-5.13H184Zm-7.75-.61c.24-1.09.48-2,.71-2.82a6.06,6.06,0,0,1,.71-1.7,1.09,1.09,0,0,1,.91-.54.59.59,0,0,1,.39.11.45.45,0,0,1,.12.32.75.75,0,0,1-.06.29.55.55,0,0,1-.17.23.42.42,0,0,1-.27.09.29.29,0,0,1-.24-.1.32.32,0,0,1-.08-.23.5.5,0,0,1,.08-.28,1,1,0,0,1,.19-.26h0a.89.89,0,0,0-.7.43,7.85,7.85,0,0,0-.78,2c-.27.93-.58,2.22-.92,3.84h-.19l-1.93-5.45c-.28,1.42-.54,2.62-.78,3.59a6,6,0,0,1-.71,1.91,1.6,1.6,0,0,1-.39.39.86.86,0,0,1-.52.15c-.33,0-.5-.15-.5-.45a.71.71,0,0,1,.06-.28.55.55,0,0,1,.17-.23.4.4,0,0,1,.27-.09.29.29,0,0,1,.24.1.41.41,0,0,1,.08.24.56.56,0,0,1-.08.27,1,1,0,0,1-.19.26h0a.85.85,0,0,0,.7-.44,7.87,7.87,0,0,0,.67-1.84q.34-1.33.75-3.45a1.37,1.37,0,0,0,0-.19.34.34,0,0,0-.06-.22.34.34,0,0,0-.2-.1,2.78,2.78,0,0,0-.4,0l0-.17a7.56,7.56,0,0,0,.76,0q.39,0,.69,0Zm-8.4-4.64A1.73,1.73,0,0,0,167,135a4.48,4.48,0,0,0-.95,1.57,5.47,5.47,0,0,0-.37,2,2.65,2.65,0,0,0,.15.94,1.25,1.25,0,0,0,.41.61,1,1,0,0,0,.61.22,1.77,1.77,0,0,0,1.23-.61,4.64,4.64,0,0,0,1-1.58,5.62,5.62,0,0,0,.36-2,2.71,2.71,0,0,0-.15-1,1.29,1.29,0,0,0-.41-.61.94.94,0,0,0-.61-.21m-3.45,4a4.57,4.57,0,0,1,.45-1.93,4.23,4.23,0,0,1,1.26-1.62,2.86,2.86,0,0,1,1.82-.65,2.27,2.27,0,0,1,1.08.24,1.7,1.7,0,0,1,.68.7,2.39,2.39,0,0,1,.24,1.11,4.6,4.6,0,0,1-.45,1.93,4.52,4.52,0,0,1-1.27,1.62,2.91,2.91,0,0,1-1.82.64,2.25,2.25,0,0,1-1.07-.24,1.59,1.59,0,0,1-.68-.7,2.32,2.32,0,0,1-.24-1.1m-3.86,1a1.64,1.64,0,0,0-.07.41.27.27,0,0,0,.06.19.3.3,0,0,0,.17.09,2.11,2.11,0,0,0,.34,0l0,.17q-.41,0-1.08,0t-1.08,0l0-.17a1.38,1.38,0,0,0,.44-.07.42.42,0,0,0,.24-.2,2,2,0,0,0,.18-.46l1.11-4.2a1.58,1.58,0,0,0,.07-.4.3.3,0,0,0-.06-.2.34.34,0,0,0-.17-.09,2.11,2.11,0,0,0-.34,0l0-.17q.34,0,1.08,0t1.08,0l0,.17a1.94,1.94,0,0,0-.46.07.47.47,0,0,0-.24.2,1.54,1.54,0,0,0-.17.46Zm-5.4-4.88a9.08,9.08,0,0,0-1.09-.1,1.94,1.94,0,0,0-.95.15.65.65,0,0,1,.11.22,1,1,0,0,1,.05.27.58.58,0,0,1-.11.34.37.37,0,0,1-.32.15.32.32,0,0,1-.27-.12.4.4,0,0,1-.1-.3.69.69,0,0,1,.45-.66,2.62,2.62,0,0,1,1.14-.2c.22,0,.43,0,.64,0l1,.12a9,9,0,0,0,1.16.09,5.27,5.27,0,0,0,.63,0,1.66,1.66,0,0,0,.46-.15.66.66,0,0,1-.21-.47.52.52,0,0,1,.11-.33.36.36,0,0,1,.3-.14.36.36,0,0,1,.29.12.46.46,0,0,1,.1.29.6.6,0,0,1-.11.34.94.94,0,0,1-.29.27,2.65,2.65,0,0,1-1.34.28,7.34,7.34,0,0,1-.87-.06L155,139.31a1.64,1.64,0,0,0-.07.43.32.32,0,0,0,.07.23.51.51,0,0,0,.22.12,3.32,3.32,0,0,0,.42,0l0,.17c-.3,0-.72,0-1.27,0s-1,0-1.23,0l0-.17a1.86,1.86,0,0,0,.56-.09.67.67,0,0,0,.31-.24,2.15,2.15,0,0,0,.21-.49Zm-6.76.78-1.81,2.56h1.95Zm1,4.29a.67.67,0,0,0,.15.4.4.4,0,0,0,.27.14l0,.17c-.22,0-.53,0-.92,0s-.79,0-1,0l0-.17a1.51,1.51,0,0,0,.45-.07.38.38,0,0,0,.22-.21.87.87,0,0,0,.06-.43l-.08-1.39h-2.08l-.63.9a1.68,1.68,0,0,0-.4.84c0,.23.21.35.62.36l0,.17q-.47,0-1,0a5.85,5.85,0,0,0-.64,0l0-.17a1.62,1.62,0,0,0,.85-.74l3.65-5.13h.12Zm-5.84-5.29a12.89,12.89,0,0,0-.54,1.95h-.19a3.17,3.17,0,0,0,.05-.58,1.51,1.51,0,0,0-.13-.67,1.14,1.14,0,0,0-.46-.49,1.22,1.22,0,0,0-.65-.17,1.93,1.93,0,0,0-1.36.66,4.88,4.88,0,0,0-1.06,1.66,5.2,5.2,0,0,0-.41,1.94,2,2,0,0,0,.32,1.24,1.07,1.07,0,0,0,.89.43,2,2,0,0,0,.79-.18,2.14,2.14,0,0,0,.72-.49,2,2,0,0,0,.38-.51,6.28,6.28,0,0,0,.38-.83h.19c-.26.94-.43,1.62-.5,2h-.19a1.89,1.89,0,0,0,0-.29c0-.15,0-.22-.1-.22a.34.34,0,0,0-.18.08,5.42,5.42,0,0,1-.51.3,2.31,2.31,0,0,1-.47.18,2.86,2.86,0,0,1-.62.07,2,2,0,0,1-1.46-.51,2,2,0,0,1-.52-1.48,4.7,4.7,0,0,1,1.83-3.6,3,3,0,0,1,1.87-.65,1.86,1.86,0,0,1,.57.08,1.16,1.16,0,0,1,.37.18,3.82,3.82,0,0,1,.32.29c.05.05.09.08.13.08s.21-.17.33-.51Z"/><path class="cls-1" d="M279.11,134.25a9.55,9.55,0,0,0-.5,1.72h-.17a2.61,2.61,0,0,0,.05-.48,1.24,1.24,0,0,0-.13-.58.91.91,0,0,0-.39-.41,1.4,1.4,0,0,0-.68-.15,1.28,1.28,0,0,0-.86.27,1,1,0,0,0-.32.8,1.81,1.81,0,0,0,.7,1.28,15.11,15.11,0,0,1,1.07,1.07,1.43,1.43,0,0,1,.37,1,1.37,1.37,0,0,1-.32.92,1.88,1.88,0,0,1-.81.56,3,3,0,0,1-1,.18,2,2,0,0,1-.72-.11,2.15,2.15,0,0,1-.49-.28.48.48,0,0,0-.3-.13.19.19,0,0,0-.17.1,1.66,1.66,0,0,0-.18.36h-.17a11.92,11.92,0,0,0,.57-2h.17c0,.17-.05.29-.06.39a2.71,2.71,0,0,0,0,.29c0,.83.49,1.24,1.38,1.24A1.47,1.47,0,0,0,277,140a1,1,0,0,0,.33-.8,1.8,1.8,0,0,0-.64-1.31c-.43-.41-.76-.74-1-1a1.54,1.54,0,0,1-.33-1,1.56,1.56,0,0,1,.26-.9,1.61,1.61,0,0,1,.7-.56,2.11,2.11,0,0,1,.9-.19,1.82,1.82,0,0,1,.6.08,1.88,1.88,0,0,1,.5.27.58.58,0,0,0,.28.15s.09,0,.13-.1a2.47,2.47,0,0,0,.15-.34ZM270.33,139c.24-1.09.48-2,.71-2.82a6.06,6.06,0,0,1,.71-1.7,1.07,1.07,0,0,1,.91-.54.54.54,0,0,1,.39.12.41.41,0,0,1,.12.31.67.67,0,0,1-.06.28.53.53,0,0,1-.17.24.44.44,0,0,1-.27.09.32.32,0,0,1-.25-.1.39.39,0,0,1-.07-.23.5.5,0,0,1,.08-.28,1,1,0,0,1,.19-.26h0a.88.88,0,0,0-.69.43,7.85,7.85,0,0,0-.78,2c-.27.94-.58,2.22-.92,3.84H270l-1.93-5.45c-.28,1.42-.54,2.62-.79,3.59a5.75,5.75,0,0,1-.7,1.91,1.62,1.62,0,0,1-.4.39.81.81,0,0,1-.51.15c-.33,0-.5-.15-.5-.45a.71.71,0,0,1,.06-.28.55.55,0,0,1,.17-.23.4.4,0,0,1,.27-.09.3.3,0,0,1,.24.1.4.4,0,0,1,.08.23.57.57,0,0,1-.08.28,1,1,0,0,1-.19.26h0a.85.85,0,0,0,.71-.44,7.36,7.36,0,0,0,.66-1.84c.23-.89.48-2,.76-3.45a1.34,1.34,0,0,0,0-.2.41.41,0,0,0-.05-.21.38.38,0,0,0-.2-.1,2.78,2.78,0,0,0-.4,0l0-.17a7.42,7.42,0,0,0,.76,0q.39,0,.69,0Z"/></g></g></svg>